<svg width="43" height="40" viewBox="0 0 43 40" fill="none" xmlns="http://www.w3.org/2000/svg">
<ellipse cx="21.2012" cy="20" rx="21.1243" ry="20" fill="white"/>
<path d="M29.0624 14.2143C28.6082 13.7659 28.0689 13.4101 27.4753 13.1674C26.8818 12.9247 26.2455 12.7998 25.603 12.7998C24.9605 12.7998 24.3243 12.9247 23.7307 13.1674C23.1371 13.4101 22.5978 13.7659 22.1436 14.2143L21.2009 15.1446L20.2583 14.2143C19.3408 13.3089 18.0964 12.8003 16.7988 12.8003C15.5013 12.8003 14.2569 13.3089 13.3394 14.2143C12.4219 15.1197 11.9065 16.3477 11.9065 17.6281C11.9065 18.9086 12.4219 20.1365 13.3394 21.0419L14.2821 21.9722L21.2009 28.7998L28.1198 21.9722L29.0624 21.0419C29.5169 20.5937 29.8774 20.0615 30.1233 19.4758C30.3693 18.89 30.4958 18.2622 30.4958 17.6281C30.4958 16.9941 30.3693 16.3663 30.1233 15.7805C29.8774 15.1947 29.5169 14.6626 29.0624 14.2143Z" fill="#D1D5DB"/>
</svg>
