<svg width="21" height="20" viewBox="0 0 21 20" fill="none" xmlns="http://www.w3.org/2000/svg">
<path d="M4.36012 5.9975C5.41747 5.9975 6.27462 5.18116 6.27462 4.17416C6.27462 3.16716 5.41747 2.35083 4.36012 2.35083C3.30277 2.35083 2.44562 3.16716 2.44562 4.17416C2.44562 5.18116 3.30277 5.9975 4.36012 5.9975Z" fill="#0500FF"/>
<path d="M8.08238 7.37918V17.495H11.3803V12.4925C11.3803 11.1725 11.641 9.89418 13.3595 9.89418C15.0544 9.89418 15.0754 11.4033 15.0754 12.5758V17.4958H18.375V11.9483C18.375 9.22335 17.759 7.12918 14.4148 7.12918C12.8091 7.12918 11.7329 7.96835 11.2928 8.76251H11.2481V7.37918H8.08238ZM2.70813 7.37918H6.01125V17.495H2.70813V7.37918Z" fill="#0500FF"/>
</svg>
