<svg width="20" height="20" viewBox="0 0 20 20" fill="none" xmlns="http://www.w3.org/2000/svg">
<path d="M16.3608 6.66415C16.3717 6.80999 16.3717 6.95499 16.3717 7.09999C16.3717 11.5375 12.9942 16.6508 6.82166 16.6508C4.91999 16.6508 3.15332 16.1 1.66666 15.1433C1.93666 15.1742 2.19666 15.185 2.47749 15.185C3.98832 15.1886 5.45636 14.6834 6.64499 13.7508C5.94451 13.7381 5.26547 13.507 4.70269 13.0898C4.13991 12.6725 3.72148 12.0899 3.50582 11.4233C3.71332 11.4542 3.92166 11.475 4.13999 11.475C4.44082 11.475 4.74332 11.4333 5.02416 11.3608C4.26396 11.2073 3.58038 10.7953 3.08967 10.1947C2.59896 9.59417 2.3314 8.84219 2.33249 8.06665V8.02498C2.77999 8.27415 3.29916 8.42998 3.84916 8.45082C3.3884 8.14464 3.01059 7.72917 2.74944 7.24148C2.48829 6.75378 2.35192 6.20903 2.35249 5.65582C2.35249 5.03249 2.51832 4.46082 2.80916 3.96249C3.65261 5 4.70458 5.84879 5.89694 6.45387C7.0893 7.05895 8.39546 7.40683 9.73082 7.47499C9.67916 7.22499 9.64749 6.96582 9.64749 6.70582C9.64727 6.26495 9.73394 5.82837 9.90255 5.42102C10.0712 5.01367 10.3184 4.64355 10.6301 4.33181C10.9419 4.02007 11.312 3.77283 11.7194 3.60422C12.1267 3.43561 12.5633 3.34893 13.0042 3.34915C13.9708 3.34915 14.8433 3.75415 15.4567 4.40915C16.2081 4.26383 16.9288 3.9895 17.5867 3.59832C17.3362 4.374 16.8115 5.03174 16.1108 5.44832C16.7773 5.3723 17.4287 5.19703 18.0433 4.92832C17.5843 5.59757 17.0154 6.18444 16.3608 6.66415Z" fill="#0500FF"/>
</svg>
