<svg width="20" height="20" viewBox="0 0 20 20" fill="none" xmlns="http://www.w3.org/2000/svg">
<path d="M17.9942 6.0025C17.8992 5.65033 17.7138 5.32917 17.4561 5.07097C17.1985 4.81277 16.8778 4.62655 16.5258 4.53083C15.2208 4.1725 10 4.16666 10 4.16666C10 4.16666 4.78 4.16083 3.47417 4.50333C3.12244 4.60345 2.80235 4.79231 2.54464 5.05177C2.28692 5.31124 2.10024 5.6326 2.0025 5.985C1.65833 7.29 1.655 9.99666 1.655 9.99666C1.655 9.99666 1.65167 12.7167 1.99333 14.0083C2.185 14.7225 2.7475 15.2867 3.4625 15.4792C4.78083 15.8375 9.9875 15.8433 9.9875 15.8433C9.9875 15.8433 15.2083 15.8492 16.5133 15.5075C16.8654 15.4119 17.1865 15.2262 17.4447 14.9685C17.703 14.7108 17.8895 14.3902 17.9858 14.0383C18.3308 12.7342 18.3333 10.0283 18.3333 10.0283C18.3333 10.0283 18.35 7.3075 17.9942 6.0025ZM8.33 12.5042L8.33417 7.50416L12.6733 10.0083L8.33 12.5042Z" fill="#0500FF"/>
</svg>
